<svg xmlns="http://www.w3.org/2000/svg" viewBox="0 0 670.58136 609.02002" height="609.02002" width="670.58136" id="svg2" version="1.1">
  <defs id="defs6">
    <clipPath id="clipPath70" clipPathUnits="userSpaceOnUse">
      <path id="path68" d="M 0,456.765 H 502.936 V 0 H 0 Z"></path>
    </clipPath>
  </defs>
  <g transform="matrix(1.3333333,0,0,-1.3333333,0,609.02)" id="g8">
    <text id="text12" style="font-variant:normal;font-weight:bold;font-stretch:normal;font-size:66.7393px;font-family:Optima;-inkscape-font-specification:Optima-Bold;writing-mode:lr-tb;fill:#782080;fill-opacity:1;fill-rule:nonzero;stroke:none" transform="matrix(1,0,0,-0.90275445,23.4204,74.0498)" xml:space="preserve"><tspan id="tspan10" y="0" x="0 40.777714 74.147362 111.25441 133.47861 166.84825 185.40178 218.77142 259.54913 292.91879 330.02585 363.39548 422.72672">RETIS SYSTEMS</tspan></text>
    <g transform="translate(364.5483,30.7373)" id="g14">
      <path id="path16" style="fill:#eecb13;fill-opacity:1;fill-rule:nonzero;stroke:none" d="M 0,0 79.666,6.331 0,12.66 Z"></path>
    </g>
    <g transform="translate(132.8687,30.7373)" id="g18">
      <path id="path20" style="fill:#eecb13;fill-opacity:1;fill-rule:nonzero;stroke:none" d="M 0,0 -79.668,6.331 0,12.66 Z"></path>
    </g>
    <text id="text24" style="font-variant:normal;font-weight:normal;font-stretch:normal;font-size:26.0909px;font-family:'Myriad Pro';-inkscape-font-specification:MyriadPro-Regular;writing-mode:lr-tb;fill:#2a357d;fill-opacity:1;fill-rule:nonzero;stroke:none" transform="matrix(1,0,0,-1,140.8774,28.8447)" xml:space="preserve"><tspan id="tspan22" y="0" x="0 12.862814 29.874081 36.109806 53.277618 59.513344 76.681152 93.535873 97.997421 110.26015 128.23677 145.09149 158.34306 171.31024 188.3215 201.15823">SHINING TOGETHER</tspan></text>
    <g transform="translate(398.7534,241.9126)" id="g26">
      <path id="path28" style="fill:none;stroke:#2a357d;stroke-width:1;stroke-linecap:butt;stroke-linejoin:miter;stroke-miterlimit:10;stroke-dasharray:none;stroke-opacity:1" d="M 0,0 V -5.404"></path>
    </g>
    <g transform="translate(385.3599,244.188)" id="g30">
      <path id="path32" style="fill:none;stroke:#2a357d;stroke-width:1;stroke-linecap:butt;stroke-linejoin:miter;stroke-miterlimit:10;stroke-dasharray:none;stroke-opacity:1" d="M 0,0 V -19.848"></path>
    </g>
    <g transform="translate(389.5034,244.188)" id="g34">
      <path id="path36" style="fill:none;stroke:#2a357d;stroke-width:1;stroke-linecap:butt;stroke-linejoin:miter;stroke-miterlimit:10;stroke-dasharray:none;stroke-opacity:1" d="M 0,0 V -19.848"></path>
    </g>
    <path id="path38" style="fill:#2a357d;fill-opacity:1;fill-rule:nonzero;stroke:none" d="m 411.248,205.874 h -15.791 v 30.807 h 15.791 z"></path>
    <path id="path40" style="fill:#ffffff;fill-opacity:1;fill-rule:nonzero;stroke:none" d="m 400.024,230.687 h -2.536 v 3.577 h 2.536 z"></path>
    <path id="path42" style="fill:#ffffff;fill-opacity:1;fill-rule:nonzero;stroke:none" d="m 403.119,230.687 h -2.537 v 3.577 h 2.537 z"></path>
    <path id="path44" style="fill:#ffffff;fill-opacity:1;fill-rule:nonzero;stroke:none" d="m 406.212,230.687 h -2.535 v 3.577 h 2.535 z"></path>
    <path id="path46" style="fill:#ffffff;fill-opacity:1;fill-rule:nonzero;stroke:none" d="m 409.307,230.687 h -2.536 v 3.577 h 2.536 z"></path>
    <path id="path48" style="fill:#ffffff;fill-opacity:1;fill-rule:nonzero;stroke:none" d="m 400.024,226.528 h -2.536 v 3.576 h 2.536 z"></path>
    <path id="path50" style="fill:#ffffff;fill-opacity:1;fill-rule:nonzero;stroke:none" d="m 403.119,226.528 h -2.537 v 3.576 h 2.537 z"></path>
    <path id="path52" style="fill:#ffffff;fill-opacity:1;fill-rule:nonzero;stroke:none" d="m 406.212,226.528 h -2.535 v 3.576 h 2.535 z"></path>
    <path id="path54" style="fill:#ffffff;fill-opacity:1;fill-rule:nonzero;stroke:none" d="m 409.307,226.528 h -2.536 v 3.576 h 2.536 z"></path>
    <g transform="translate(356.8843,205.8735)" id="g56">
      <path id="path58" style="fill:#ded53f;fill-opacity:1;fill-rule:nonzero;stroke:none" d="M 0,0 H 51.257 V 13.462 L 26.923,20.711 0,13.979 Z"></path>
    </g>
    <path id="path60" style="fill:#2a357d;fill-opacity:1;fill-rule:nonzero;stroke:none" d="m 385.36,205.874 h -8.967 v 7.93 h 8.967 z"></path>
    <path id="path62" style="fill:#2a357d;fill-opacity:1;fill-rule:nonzero;stroke:none" d="m 408.141,217.502 h -51.257 v 1.036 h 51.257 z"></path>
    <g id="g64">
      <g clip-path="url(#clipPath70)" id="g66">
        <g transform="translate(379.7095,275.1299)" id="g72">
          <path id="path74" style="fill:#2a357d;fill-opacity:1;fill-rule:nonzero;stroke:none" d="m 0,0 c 0,-67.193 -54.469,-121.664 -121.664,-121.664 -67.191,0 -121.666,54.471 -121.666,121.664 0,67.193 54.475,121.665 121.666,121.665 C -54.469,121.665 0,67.193 0,0"></path>
        </g>
        <g transform="translate(378.4399,290.042)" id="g76">
          <path id="path78" style="fill:#ffffff;fill-opacity:1;fill-rule:nonzero;stroke:none" d="m 0,0 c 0,-62.117 -50.353,-112.472 -112.472,-112.472 -62.113,0 -112.469,50.355 -112.469,112.472 0,62.118 50.356,112.473 112.469,112.473 C -50.353,112.473 0,62.118 0,0"></path>
        </g>
        <g transform="translate(180.3735,305.6938)" id="g80">
          <path id="path82" style="fill:#eecb13;fill-opacity:1;fill-rule:nonzero;stroke:none" d="M 0,0 C 0,0 31.396,48.151 85.595,71.451 85.595,71.451 25.37,55.918 0,0"></path>
        </g>
        <g transform="translate(255.104,214.5684)" id="g84">
          <path id="path86" style="fill:#eecb13;fill-opacity:1;fill-rule:nonzero;stroke:none" d="M 0,0 C 0,0 12.472,64.029 104.587,94.232 104.587,94.232 28.643,56.962 0,0"></path>
        </g>
        <g transform="translate(183.6489,331.9268)" id="g88">
          <path id="path90" style="fill:#eecb13;fill-opacity:1;fill-rule:nonzero;stroke:none" d="M 0,0 C 0,0 8.632,-64.547 89.058,-106.658 89.058,-106.658 -1.723,-76.282 0,0"></path>
        </g>
        <g transform="translate(246.1284,377.1445)" id="g92">
          <path id="path94" style="fill:#eecb13;fill-opacity:1;fill-rule:nonzero;stroke:none" d="M 0,0 C 0,0 59.024,-14.498 98.03,-90.091 98.03,-90.091 79.733,-10.355 0,0"></path>
        </g>
        <g transform="translate(348.8872,352.3638)" id="g96">
          <path id="path98" style="fill:#2a357d;fill-opacity:1;fill-rule:evenodd;stroke:none" d="m 0,0 c 4.211,-5.078 8.417,-10.162 12.645,-15.227 0.218,-0.263 0.715,-0.593 0.93,-0.508 0.522,0.203 1.065,0.531 0.943,1.302 -0.089,0.551 -0.134,1.12 -0.098,1.674 0.064,0.974 -0.359,1.685 -0.962,2.409 -6.752,8.107 -13.51,16.204 -20.177,24.381 -1.266,1.554 -2.6,2.616 -4.612,2.9 -0.752,0.108 -1.294,-0.055 -1.565,-0.598 -0.141,-0.28 0.133,-0.905 0.401,-1.227 C -8.346,10.057 -4.171,5.031 0,0"></path>
        </g>
        <g transform="translate(378.9409,356.0835)" id="g100">
          <path id="path102" style="fill:#2a357d;fill-opacity:1;fill-rule:evenodd;stroke:none" d="M 0,0 C -6.977,8.417 -13.89,16.761 -20.803,25.097 -25.888,20.882 -30.919,16.709 -35.923,12.56 -28.958,4.157 -22.041,-4.186 -15.119,-12.536 -10.06,-8.341 -5.059,-4.195 0,0 m -37.934,13.032 c 0.268,0.222 0.505,0.417 0.738,0.612 5.03,4.17 10.059,8.34 15.091,12.506 1.258,1.043 1.641,1.006 2.669,-0.238 C -12.604,17.673 -5.772,9.436 1.056,1.196 2.019,0.036 1.986,-0.415 0.865,-1.348 -4.211,-5.56 -9.291,-9.767 -14.367,-13.976 c -0.211,-0.175 -0.425,-0.352 -0.7,-0.581 -7.617,9.192 -15.185,18.324 -22.867,27.589"></path>
        </g>
        <g transform="translate(239.0864,432.416)" id="g104">
          <path id="path106" style="fill:#2a357d;fill-opacity:1;fill-rule:evenodd;stroke:none" d="m 0,0 c -0.938,0 -1.877,-0.003 -2.819,0.002 -0.247,0.001 -0.479,-0.031 -0.474,-0.339 0,-0.288 0.231,-0.33 0.457,-0.33 1.877,0 3.758,0 5.635,0 0.229,0 0.457,0.042 0.461,0.33 0,0.308 -0.232,0.34 -0.478,0.339 C 1.852,-0.003 0.927,0 0,0 m 1.366,-36.613 c 0.009,0.779 -0.606,1.414 -1.376,1.42 -0.762,0.006 -1.39,-0.626 -1.394,-1.402 0,-0.763 0.598,-1.381 1.358,-1.399 0.77,-0.018 1.404,0.605 1.412,1.381 m -11.479,2.415 h 20.189 v 0.428 30.919 c 0,0.441 0,0.443 -0.437,0.443 H -9.677 c -0.436,0 -0.436,-0.002 -0.436,-0.443 v -30.92 z m 22.126,15.499 v -17.654 c 0.004,-0.981 -0.295,-1.821 -1.092,-2.443 -0.546,-0.431 -1.177,-0.599 -1.865,-0.599 -5.728,0.003 -11.452,0.001 -17.178,0.001 h -0.984 c -1.698,0.005 -2.888,1.159 -2.946,2.851 v 0.204 35.307 c 0,0.994 0.296,1.844 1.106,2.47 0.521,0.403 1.116,0.588 1.767,0.588 6.101,0 12.2,0.003 18.3,-0.002 1.671,0 2.867,-1.203 2.888,-2.9 0.017,-1.155 0.004,-2.308 0.004,-3.463 z"></path>
        </g>
        <g transform="translate(123.355,338.23)" id="g108">
          <path id="path110" style="fill:#2a357d;fill-opacity:1;fill-rule:evenodd;stroke:none" d="m 0,0 c -1.076,-3.672 -2.145,-7.31 -3.221,-10.965 -0.282,0.058 -0.549,0.143 -0.828,0.166 -0.887,0.076 -1.614,-0.375 -2.285,-0.979 -1.222,-1.099 -2.104,-2.492 -2.893,-3.959 -1.295,-2.415 -2.228,-4.983 -2.93,-7.639 -0.568,-2.163 -0.965,-4.353 -1.018,-6.581 -0.031,-1.335 0.057,-2.65 0.506,-3.885 0.263,-0.721 0.661,-1.325 1.315,-1.676 0.271,-0.148 0.566,-0.239 0.848,-0.354 -1.034,-3.532 -2.07,-7.059 -3.122,-10.638 -0.554,0.197 -1.083,0.353 -1.589,0.571 -2.487,1.064 -4.061,3.102 -5.061,5.731 -0.743,1.95 -1.081,4.021 -1.209,6.151 -0.142,2.368 -0.003,4.733 0.318,7.104 0.384,2.855 1.041,5.649 1.914,8.402 0.622,1.956 1.364,3.864 2.227,5.724 0.915,1.968 1.956,3.854 3.181,5.622 1.393,2.006 2.962,3.816 4.875,5.242 1.679,1.254 3.492,2.092 5.497,2.29 1.036,0.103 2.047,0.007 3.046,-0.242 C -0.295,0.049 -0.153,0.03 0,0"></path>
        </g>
        <g transform="translate(128.1079,317.9355)" id="g112">
          <path id="path114" style="fill:#2a357d;fill-opacity:1;fill-rule:evenodd;stroke:none" d="M 0,0 C -0.396,0.075 -0.781,0.168 -1.178,0.222 -2.848,0.455 -4.43,0.1 -5.873,-0.98 -7.075,-1.878 -7.852,-3.105 -8.11,-4.644 c -0.299,-1.742 0.141,-3.268 1.121,-4.578 1.083,-1.461 2.531,-2.274 4.259,-2.537 1.67,-0.255 3.263,0.08 4.724,1.149 1.246,0.911 2.047,2.167 2.306,3.756 0.279,1.718 -0.162,3.213 -1.112,4.512 C 2.357,-1.206 1.273,-0.463 0,0 m 1.145,-21.773 c -0.822,0.44 -1.619,0.848 -2.399,1.288 -2.192,1.24 -4.186,2.771 -5.95,4.642 -1.635,1.736 -3.001,3.699 -4.058,5.92 -0.15,0.317 -0.335,0.48 -0.651,0.567 -1.343,0.371 -2.672,0.773 -4.005,1.165 -0.076,0.023 -0.152,0.044 -0.237,0.069 0.319,1.091 0.631,2.156 0.95,3.245 1.473,-0.43 2.933,-0.861 4.434,-1.3 0.585,1.898 1.16,3.772 1.747,5.672 -1.44,0.424 -2.868,0.843 -4.312,1.267 0.315,1.075 0.622,2.121 0.942,3.203 0.085,-0.025 0.169,-0.05 0.25,-0.073 1.405,-0.413 2.808,-0.824 4.211,-1.243 0.146,-0.044 0.263,-0.025 0.402,0.065 2.066,1.345 4.23,2.417 6.536,3.104 2.233,0.663 4.49,0.98 6.766,0.993 C 7.018,6.817 8.261,6.738 9.506,6.696 9.563,6.695 9.62,6.681 9.707,6.669 6.856,-2.802 4.008,-12.26 1.145,-21.773"></path>
        </g>
        <g transform="translate(142.3657,323.2183)" id="g116">
          <path id="path118" style="fill:#2a357d;fill-opacity:1;fill-rule:evenodd;stroke:none" d="m 0,0 c -2.778,-9.473 -5.558,-18.934 -8.34,-28.411 -1.371,0.403 -2.726,0.803 -4.114,1.209 2.844,9.448 5.688,18.891 8.535,28.353 C -2.612,0.769 -1.318,0.389 0,0"></path>
        </g>
        <g transform="translate(124.0259,338.0747)" id="g120">
          <path id="path122" style="fill:#2a357d;fill-opacity:1;fill-rule:evenodd;stroke:none" d="M 0,0 C 1.023,-0.3 2.015,-0.591 3.038,-0.893 1.927,-4.579 0.813,-8.264 -0.3,-11.966 c -1.013,0.343 -2.001,0.676 -3.016,1.02 C -2.212,-7.294 -1.107,-3.657 0,0"></path>
        </g>
        <g transform="translate(113.1899,290.7598)" id="g124">
          <path id="path126" style="fill:#2a357d;fill-opacity:1;fill-rule:evenodd;stroke:none" d="m 0,0 c -0.982,0.289 -1.925,0.565 -2.909,0.854 1.085,3.482 2.176,6.983 3.271,10.5 C 1.303,11.077 2.229,10.807 3.187,10.523 2.128,7.031 1.071,3.539 0,0"></path>
        </g>
        <g transform="translate(92.8013,187.4204)" id="g128">
          <path id="path130" style="fill:#2a357d;fill-opacity:1;fill-rule:evenodd;stroke:none" d="M 0,0 C 0.054,-0.846 0.104,-1.602 0.164,-2.551 1.506,-0.849 1.495,-0.309 0,0 m 42.969,-7.443 c -0.717,1.102 -1.697,0.743 -2.514,0.99 0.098,-0.912 0.611,-1.126 2.514,-0.99 m -44.067,6.729 c -0.103,0.04 -0.209,0.08 -0.311,0.123 -0.268,-0.554 -0.721,-1.107 -0.723,-1.66 -0.002,-0.323 0.723,-0.651 1.118,-0.976 0.077,0.074 0.15,0.15 0.228,0.225 -0.104,0.761 -0.206,1.524 -0.312,2.288 m 33.552,-7.781 c -0.096,0.196 -0.194,0.395 -0.295,0.592 -0.328,0.299 -0.659,0.595 -0.987,0.893 -0.254,-0.333 -0.727,-0.687 -0.699,-0.994 0.037,-0.37 0.449,-0.908 0.79,-0.99 0.338,-0.082 0.792,0.313 1.191,0.499 M 1.156,4.153 C -0.277,1.803 -0.232,1.542 1.517,1.19 1.407,2.096 1.3,2.963 1.156,4.153 M -0.859,3.26 c 0.115,0.003 0.231,0.003 0.342,0.005 -0.116,0.892 1.527,1.409 0.464,2.41 -0.784,0.739 -1.584,0.282 -2.182,-0.601 0.299,-0.428 0.594,-0.866 0.903,-1.289 0.141,-0.191 0.314,-0.351 0.473,-0.525 m -2.169,-4.094 c 1.606,2.167 1.584,3.401 0,4.625 z m 38.637,-9.288 c -1.176,0.1 -1.921,0.163 -2.591,0.219 v -3.213 c 0.121,-0.048 0.246,-0.1 0.372,-0.148 0.674,0.959 1.354,1.915 2.219,3.142 m -4.897,-0.115 c -0.891,-0.842 -1.594,-1.508 -2.549,-2.411 1.137,-0.5 2.067,-0.911 3.001,-1.321 0.077,0.116 0.154,0.231 0.231,0.346 -0.207,1.031 -0.417,2.064 -0.683,3.386 m 5.067,1.671 c -0.315,1.511 -0.569,2.75 -0.824,3.987 -0.126,0.011 -0.247,0.021 -0.373,0.033 -0.578,-0.996 -1.16,-1.991 -1.864,-3.202 1.043,-0.279 1.873,-0.502 3.061,-0.818 m -8.255,3.75 c -0.862,-2.051 -1.011,-3.991 -0.122,-6.025 2.687,2.552 2.715,3.604 0.122,6.025 m 1.117,1.392 c 2.706,-2.966 2.859,-2.962 4.837,0.058 0.036,0.056 0.013,0.154 0.021,0.229 -1.74,1.326 -3.269,1.253 -4.858,-0.287 M 0.14,14.031 C 2.145,12.045 4.371,11.959 6.57,11.515 7.305,13.71 8.011,15.822 8.715,17.934 8.632,18.039 8.546,18.144 8.46,18.25 5.792,16.897 3.125,15.545 0.14,14.031 M 19.591,8.73 c 1.473,1.396 1.513,1.417 0.594,3.157 -0.901,1.701 -1.866,3.371 -2.878,5.006 -0.244,0.393 -0.77,0.784 -1.214,0.851 -1.698,0.254 -3.416,0.4 -5.129,0.525 -0.295,0.023 -0.785,-0.173 -0.894,-0.404 -1.028,-2.206 -1.416,-4.567 -1.69,-7.027 2.228,-0.469 4.335,-0.913 6.442,-1.357 0.457,1.592 1.683,0.717 2.549,0.932 1.416,0.352 1.521,-1.074 2.22,-1.683 m -0.532,8.95 c 2.038,-3.204 3.894,-6.155 5.807,-9.069 0.143,-0.219 0.696,-0.295 1.031,-0.249 5.174,0.685 10.344,1.408 15.513,2.115 1.468,0.201 2.937,0.386 4.405,0.578 0.052,0.148 0.109,0.298 0.166,0.445 -3.264,2.198 -6.52,4.406 -9.8,6.575 -0.349,0.232 -0.854,0.32 -1.283,0.319 -2.763,-0.01 -5.521,0 -8.277,-0.122 -2.446,-0.107 -4.882,-0.376 -7.562,-0.592 m 18.165,-32.464 c -5.575,-2.488 -10.982,-0.741 -12.014,6.05 v -2.185 c -2.94,1.014 -5.724,1.962 -8.503,2.93 -4.299,1.5 -8.591,3.026 -12.898,4.497 -0.361,0.123 -0.984,0.076 -1.23,-0.158 -1.888,-1.777 -4.658,-1.42 -5.583,0.991 -0.529,1.382 -1.389,2.332 -2.383,3.269 -1.022,0.962 -1.684,1.916 -0.91,3.437 0.292,0.576 -0.054,1.451 -0.023,2.188 0.078,1.988 0.133,3.983 0.366,5.956 0.05,0.434 0.744,0.988 1.243,1.135 1.294,0.378 2.654,0.516 3.964,0.835 0.66,0.159 1.34,0.405 1.895,0.777 3.821,2.563 7.906,4.126 12.59,4.478 5.11,0.384 10.19,0.372 15.283,0.11 2.131,-0.11 4.299,-0.269 6.354,-0.783 1.421,-0.354 2.759,-1.246 4.001,-2.096 1.997,-1.369 3.977,-2.8 5.793,-4.395 1.556,-1.364 3.292,-1.984 5.274,-2.341 5.294,-0.949 10.541,-2.161 15.521,-4.234 2.815,-1.17 5.371,-2.805 7.345,-5.248 1.194,-1.475 1.306,-3.058 0.808,-4.751 -0.178,-0.607 -0.225,-0.991 0.304,-1.484 0.721,-0.67 0.928,-1.532 0.219,-2.41 -0.125,-0.156 -0.32,-0.384 -0.283,-0.526 0.372,-1.4 -0.732,-1.845 -1.561,-2.44 -4.098,-2.929 -8.803,-4.32 -13.651,-5.331 -0.767,-0.16 -1.55,-0.252 -2.287,-0.496 -2.698,-0.901 -5.424,-0.632 -8.147,-0.247 -3.364,0.478 -6.727,1.015 -10.079,1.583 -0.433,0.075 -0.81,0.501 -1.408,0.889"></path>
        </g>
        <g transform="translate(144.5991,181.2847)" id="g132">
          <path id="path134" style="fill:#ffffff;fill-opacity:1;fill-rule:evenodd;stroke:none" d="M 0,0 C 0,-0.751 -0.606,-1.36 -1.359,-1.36 H -3.54 c -0.752,0 -1.358,0.609 -1.358,1.36 0,0.749 0.606,1.359 1.358,1.359 h 2.181 C -0.606,1.359 0,0.749 0,0"></path>
        </g>
        <g transform="translate(165.6167,185.6074)" id="g136">
          <path id="path138" style="fill:#ffffff;fill-opacity:1;fill-rule:evenodd;stroke:none" d="m 0,0 c 0.114,-0.741 -0.396,-1.435 -1.137,-1.548 l -2.16,-0.331 c -0.739,-0.113 -1.435,0.398 -1.549,1.138 -0.109,0.743 0.397,1.435 1.141,1.549 l 2.156,0.331 C -0.805,1.25 -0.113,0.742 0,0"></path>
        </g>
        <g transform="translate(158.5063,182.895)" id="g140">
          <path id="path142" style="fill:#ffffff;fill-opacity:1;fill-rule:evenodd;stroke:none" d="M 0,0 C 0.116,-0.765 -0.405,-1.481 -1.169,-1.602 L -8.907,-2.81 c -0.765,-0.12 -1.481,0.403 -1.603,1.168 l -0.178,1.139 c -0.117,0.763 0.406,1.48 1.173,1.599 l 7.735,1.209 c 0.764,0.12 1.48,-0.403 1.601,-1.167 z"></path>
        </g>
        <g transform="translate(180.3735,229.0654)" id="g144">
          <path id="path146" style="fill:#2a357d;fill-opacity:1;fill-rule:nonzero;stroke:none" d="M 0,0 C 0,0 64.202,126.852 168.271,119.085 168.271,119.085 74.039,177.074 0,0"></path>
        </g>
        <path id="path148" style="fill:none;stroke:#2a357d;stroke-width:0.1;stroke-linecap:butt;stroke-linejoin:miter;stroke-miterlimit:10;stroke-dasharray:none;stroke-opacity:1" d="m 368.02,218.816 h -1.582 v 1.229 h 1.582 z"></path>
        <path id="path150" style="fill:none;stroke:#2a357d;stroke-width:0.1;stroke-linecap:butt;stroke-linejoin:miter;stroke-miterlimit:10;stroke-dasharray:none;stroke-opacity:1" d="m 369.961,218.816 h -1.582 v 1.229 h 1.582 z"></path>
        <path id="path152" style="fill:none;stroke:#2a357d;stroke-width:0.1;stroke-linecap:butt;stroke-linejoin:miter;stroke-miterlimit:10;stroke-dasharray:none;stroke-opacity:1" d="m 371.903,218.816 h -1.582 v 1.229 h 1.582 z"></path>
        <path id="path154" style="fill:none;stroke:#2a357d;stroke-width:0.1;stroke-linecap:butt;stroke-linejoin:miter;stroke-miterlimit:10;stroke-dasharray:none;stroke-opacity:1" d="m 373.845,218.816 h -1.583 v 1.229 h 1.583 z"></path>
        <path id="path156" style="fill:none;stroke:#2a357d;stroke-width:0.1;stroke-linecap:butt;stroke-linejoin:miter;stroke-miterlimit:10;stroke-dasharray:none;stroke-opacity:1" d="m 375.787,218.816 h -1.582 v 1.229 h 1.582 z"></path>
        <path id="path158" style="fill:none;stroke:#2a357d;stroke-width:0.1;stroke-linecap:butt;stroke-linejoin:miter;stroke-miterlimit:10;stroke-dasharray:none;stroke-opacity:1" d="m 377.728,218.816 h -1.582 v 1.229 h 1.582 z"></path>
        <path id="path160" style="fill:none;stroke:#2a357d;stroke-width:0.1;stroke-linecap:butt;stroke-linejoin:miter;stroke-miterlimit:10;stroke-dasharray:none;stroke-opacity:1" d="m 379.669,218.816 h -1.582 v 1.229 h 1.582 z"></path>
        <path id="path162" style="fill:none;stroke:#2a357d;stroke-width:0.1;stroke-linecap:butt;stroke-linejoin:miter;stroke-miterlimit:10;stroke-dasharray:none;stroke-opacity:1" d="m 381.611,218.816 h -1.581 v 1.229 h 1.581 z"></path>
        <path id="path164" style="fill:none;stroke:#2a357d;stroke-width:0.1;stroke-linecap:butt;stroke-linejoin:miter;stroke-miterlimit:10;stroke-dasharray:none;stroke-opacity:1" d="m 383.553,218.816 h -1.583 v 1.229 h 1.583 z"></path>
        <path id="path166" style="fill:none;stroke:#2a357d;stroke-width:0.1;stroke-linecap:butt;stroke-linejoin:miter;stroke-miterlimit:10;stroke-dasharray:none;stroke-opacity:1" d="m 385.495,218.816 h -1.582 v 1.229 h 1.582 z"></path>
        <path id="path168" style="fill:none;stroke:#2a357d;stroke-width:0.1;stroke-linecap:butt;stroke-linejoin:miter;stroke-miterlimit:10;stroke-dasharray:none;stroke-opacity:1" d="m 387.436,218.816 h -1.582 v 1.229 h 1.582 z"></path>
        <path id="path170" style="fill:none;stroke:#2a357d;stroke-width:0.1;stroke-linecap:butt;stroke-linejoin:miter;stroke-miterlimit:10;stroke-dasharray:none;stroke-opacity:1" d="m 389.377,218.816 h -1.582 v 1.229 h 1.582 z"></path>
        <path id="path172" style="fill:none;stroke:#2a357d;stroke-width:0.1;stroke-linecap:butt;stroke-linejoin:miter;stroke-miterlimit:10;stroke-dasharray:none;stroke-opacity:1" d="m 391.32,218.816 h -1.582 v 1.229 h 1.582 z"></path>
        <path id="path174" style="fill:none;stroke:#2a357d;stroke-width:0.1;stroke-linecap:butt;stroke-linejoin:miter;stroke-miterlimit:10;stroke-dasharray:none;stroke-opacity:1" d="m 393.261,218.816 h -1.582 v 1.229 h 1.582 z"></path>
        <path id="path176" style="fill:none;stroke:#2a357d;stroke-width:0.1;stroke-linecap:butt;stroke-linejoin:miter;stroke-miterlimit:10;stroke-dasharray:none;stroke-opacity:1" d="m 395.202,218.816 h -1.581 v 1.229 h 1.581 z"></path>
        <path id="path178" style="fill:none;stroke:#2a357d;stroke-width:0.1;stroke-linecap:butt;stroke-linejoin:miter;stroke-miterlimit:10;stroke-dasharray:none;stroke-opacity:1" d="m 397.145,218.816 h -1.583 v 1.229 h 1.583 z"></path>
        <path id="path180" style="fill:none;stroke:#2a357d;stroke-width:0.1;stroke-linecap:butt;stroke-linejoin:miter;stroke-miterlimit:10;stroke-dasharray:none;stroke-opacity:1" d="m 399.085,218.816 h -1.581 v 1.229 h 1.581 z"></path>
        <path id="path182" style="fill:none;stroke:#2a357d;stroke-width:0.1;stroke-linecap:butt;stroke-linejoin:miter;stroke-miterlimit:10;stroke-dasharray:none;stroke-opacity:1" d="m 401.027,218.816 h -1.581 v 1.229 h 1.581 z"></path>
        <path id="path184" style="fill:none;stroke:#2a357d;stroke-width:0.1;stroke-linecap:butt;stroke-linejoin:miter;stroke-miterlimit:10;stroke-dasharray:none;stroke-opacity:1" d="m 402.968,218.816 h -1.581 v 1.229 h 1.581 z"></path>
        <path id="path186" style="fill:none;stroke:#2a357d;stroke-width:0.1;stroke-linecap:butt;stroke-linejoin:miter;stroke-miterlimit:10;stroke-dasharray:none;stroke-opacity:1" d="m 404.91,218.816 h -1.58 v 1.229 h 1.58 z"></path>
        <path id="path188" style="fill:none;stroke:#2a357d;stroke-width:0.1;stroke-linecap:butt;stroke-linejoin:miter;stroke-miterlimit:10;stroke-dasharray:none;stroke-opacity:1" d="m 406.851,218.816 h -1.582 v 1.229 h 1.582 z"></path>
        <path id="path190" style="fill:none;stroke:#2a357d;stroke-width:0.1;stroke-linecap:butt;stroke-linejoin:miter;stroke-miterlimit:10;stroke-dasharray:none;stroke-opacity:1" d="m 369.961,218.816 h -1.582 v 1.229 h 1.582 z"></path>
        <path id="path192" style="fill:none;stroke:#2a357d;stroke-width:0.1;stroke-linecap:butt;stroke-linejoin:miter;stroke-miterlimit:10;stroke-dasharray:none;stroke-opacity:1" d="m 371.903,218.816 h -1.582 v 1.229 h 1.582 z"></path>
        <path id="path194" style="fill:none;stroke:#2a357d;stroke-width:0.1;stroke-linecap:butt;stroke-linejoin:miter;stroke-miterlimit:10;stroke-dasharray:none;stroke-opacity:1" d="m 373.845,218.816 h -1.583 v 1.229 h 1.583 z"></path>
        <path id="path196" style="fill:none;stroke:#2a357d;stroke-width:0.1;stroke-linecap:butt;stroke-linejoin:miter;stroke-miterlimit:10;stroke-dasharray:none;stroke-opacity:1" d="m 375.787,218.816 h -1.582 v 1.229 h 1.582 z"></path>
        <path id="path198" style="fill:none;stroke:#2a357d;stroke-width:0.1;stroke-linecap:butt;stroke-linejoin:miter;stroke-miterlimit:10;stroke-dasharray:none;stroke-opacity:1" d="m 377.728,218.816 h -1.582 v 1.229 h 1.582 z"></path>
        <path id="path200" style="fill:none;stroke:#2a357d;stroke-width:0.1;stroke-linecap:butt;stroke-linejoin:miter;stroke-miterlimit:10;stroke-dasharray:none;stroke-opacity:1" d="m 379.669,218.816 h -1.582 v 1.229 h 1.582 z"></path>
        <path id="path202" style="fill:none;stroke:#2a357d;stroke-width:0.1;stroke-linecap:butt;stroke-linejoin:miter;stroke-miterlimit:10;stroke-dasharray:none;stroke-opacity:1" d="m 381.611,218.816 h -1.581 v 1.229 h 1.581 z"></path>
        <path id="path204" style="fill:none;stroke:#2a357d;stroke-width:0.1;stroke-linecap:butt;stroke-linejoin:miter;stroke-miterlimit:10;stroke-dasharray:none;stroke-opacity:1" d="m 383.553,218.816 h -1.583 v 1.229 h 1.583 z"></path>
        <path id="path206" style="fill:none;stroke:#2a357d;stroke-width:0.1;stroke-linecap:butt;stroke-linejoin:miter;stroke-miterlimit:10;stroke-dasharray:none;stroke-opacity:1" d="m 385.495,218.816 h -1.582 v 1.229 h 1.582 z"></path>
        <path id="path208" style="fill:none;stroke:#2a357d;stroke-width:0.1;stroke-linecap:butt;stroke-linejoin:miter;stroke-miterlimit:10;stroke-dasharray:none;stroke-opacity:1" d="m 387.436,218.816 h -1.582 v 1.229 h 1.582 z"></path>
        <path id="path210" style="fill:none;stroke:#2a357d;stroke-width:0.1;stroke-linecap:butt;stroke-linejoin:miter;stroke-miterlimit:10;stroke-dasharray:none;stroke-opacity:1" d="m 389.377,218.816 h -1.582 v 1.229 h 1.582 z"></path>
        <path id="path212" style="fill:none;stroke:#2a357d;stroke-width:0.1;stroke-linecap:butt;stroke-linejoin:miter;stroke-miterlimit:10;stroke-dasharray:none;stroke-opacity:1" d="m 391.32,218.816 h -1.582 v 1.229 h 1.582 z"></path>
        <path id="path214" style="fill:none;stroke:#2a357d;stroke-width:0.1;stroke-linecap:butt;stroke-linejoin:miter;stroke-miterlimit:10;stroke-dasharray:none;stroke-opacity:1" d="m 393.261,218.816 h -1.582 v 1.229 h 1.582 z"></path>
        <path id="path216" style="fill:none;stroke:#2a357d;stroke-width:0.1;stroke-linecap:butt;stroke-linejoin:miter;stroke-miterlimit:10;stroke-dasharray:none;stroke-opacity:1" d="m 395.202,218.816 h -1.581 v 1.229 h 1.581 z"></path>
        <path id="path218" style="fill:none;stroke:#2a357d;stroke-width:0.1;stroke-linecap:butt;stroke-linejoin:miter;stroke-miterlimit:10;stroke-dasharray:none;stroke-opacity:1" d="m 397.145,218.816 h -1.583 v 1.229 h 1.583 z"></path>
        <path id="path220" style="fill:none;stroke:#2a357d;stroke-width:0.1;stroke-linecap:butt;stroke-linejoin:miter;stroke-miterlimit:10;stroke-dasharray:none;stroke-opacity:1" d="m 399.085,218.816 h -1.581 v 1.229 h 1.581 z"></path>
        <path id="path222" style="fill:none;stroke:#2a357d;stroke-width:0.1;stroke-linecap:butt;stroke-linejoin:miter;stroke-miterlimit:10;stroke-dasharray:none;stroke-opacity:1" d="m 401.027,218.816 h -1.581 v 1.229 h 1.581 z"></path>
        <path id="path224" style="fill:none;stroke:#2a357d;stroke-width:0.1;stroke-linecap:butt;stroke-linejoin:miter;stroke-miterlimit:10;stroke-dasharray:none;stroke-opacity:1" d="m 402.968,218.816 h -1.581 v 1.229 h 1.581 z"></path>
        <path id="path226" style="fill:none;stroke:#2a357d;stroke-width:0.1;stroke-linecap:butt;stroke-linejoin:miter;stroke-miterlimit:10;stroke-dasharray:none;stroke-opacity:1" d="m 404.91,218.816 h -1.58 v 1.229 h 1.58 z"></path>
        <path id="path228" style="fill:none;stroke:#2a357d;stroke-width:0.1;stroke-linecap:butt;stroke-linejoin:miter;stroke-miterlimit:10;stroke-dasharray:none;stroke-opacity:1" d="m 406.851,218.816 h -1.582 v 1.229 h 1.582 z"></path>
        <path id="path230" style="fill:none;stroke:#2a357d;stroke-width:0.1;stroke-linecap:butt;stroke-linejoin:miter;stroke-miterlimit:10;stroke-dasharray:none;stroke-opacity:1" d="m 408.793,218.816 h -1.582 v 1.229 h 1.582 z"></path>
        <path id="path232" style="fill:none;stroke:#2a357d;stroke-width:0.1;stroke-linecap:butt;stroke-linejoin:miter;stroke-miterlimit:10;stroke-dasharray:none;stroke-opacity:1" d="m 365.949,215.936 h -1.582 v 1.229 h 1.582 z"></path>
        <path id="path234" style="fill:none;stroke:#2a357d;stroke-width:0.1;stroke-linecap:butt;stroke-linejoin:miter;stroke-miterlimit:10;stroke-dasharray:none;stroke-opacity:1" d="m 367.89,215.936 h -1.581 v 1.229 h 1.581 z"></path>
        <path id="path236" style="fill:none;stroke:#2a357d;stroke-width:0.1;stroke-linecap:butt;stroke-linejoin:miter;stroke-miterlimit:10;stroke-dasharray:none;stroke-opacity:1" d="m 369.833,215.936 h -1.582 v 1.229 h 1.582 z"></path>
        <path id="path238" style="fill:none;stroke:#2a357d;stroke-width:0.1;stroke-linecap:butt;stroke-linejoin:miter;stroke-miterlimit:10;stroke-dasharray:none;stroke-opacity:1" d="m 371.775,215.936 h -1.583 v 1.229 h 1.583 z"></path>
        <path id="path240" style="fill:none;stroke:#2a357d;stroke-width:0.1;stroke-linecap:butt;stroke-linejoin:miter;stroke-miterlimit:10;stroke-dasharray:none;stroke-opacity:1" d="m 373.715,215.936 h -1.581 v 1.229 h 1.581 z"></path>
        <path id="path242" style="fill:none;stroke:#2a357d;stroke-width:0.1;stroke-linecap:butt;stroke-linejoin:miter;stroke-miterlimit:10;stroke-dasharray:none;stroke-opacity:1" d="m 375.658,215.936 h -1.583 v 1.229 h 1.583 z"></path>
        <path id="path244" style="fill:none;stroke:#2a357d;stroke-width:0.1;stroke-linecap:butt;stroke-linejoin:miter;stroke-miterlimit:10;stroke-dasharray:none;stroke-opacity:1" d="m 377.599,215.936 h -1.582 v 1.229 h 1.582 z"></path>
        <path id="path246" style="fill:none;stroke:#2a357d;stroke-width:0.1;stroke-linecap:butt;stroke-linejoin:miter;stroke-miterlimit:10;stroke-dasharray:none;stroke-opacity:1" d="m 379.54,215.936 h -1.581 v 1.229 h 1.581 z"></path>
        <path id="path248" style="fill:none;stroke:#2a357d;stroke-width:0.1;stroke-linecap:butt;stroke-linejoin:miter;stroke-miterlimit:10;stroke-dasharray:none;stroke-opacity:1" d="M 381.481,215.936 H 379.9 v 1.229 h 1.581 z"></path>
        <path id="path250" style="fill:none;stroke:#2a357d;stroke-width:0.1;stroke-linecap:butt;stroke-linejoin:miter;stroke-miterlimit:10;stroke-dasharray:none;stroke-opacity:1" d="m 383.423,215.936 h -1.581 v 1.229 h 1.581 z"></path>
        <path id="path252" style="fill:none;stroke:#2a357d;stroke-width:0.1;stroke-linecap:butt;stroke-linejoin:miter;stroke-miterlimit:10;stroke-dasharray:none;stroke-opacity:1" d="m 385.365,215.936 h -1.581 v 1.229 h 1.581 z"></path>
        <path id="path254" style="fill:none;stroke:#2a357d;stroke-width:0.1;stroke-linecap:butt;stroke-linejoin:miter;stroke-miterlimit:10;stroke-dasharray:none;stroke-opacity:1" d="m 387.306,215.936 h -1.581 v 1.229 h 1.581 z"></path>
        <path id="path256" style="fill:none;stroke:#2a357d;stroke-width:0.1;stroke-linecap:butt;stroke-linejoin:miter;stroke-miterlimit:10;stroke-dasharray:none;stroke-opacity:1" d="m 389.247,215.936 h -1.581 v 1.229 h 1.581 z"></path>
        <path id="path258" style="fill:none;stroke:#2a357d;stroke-width:0.1;stroke-linecap:butt;stroke-linejoin:miter;stroke-miterlimit:10;stroke-dasharray:none;stroke-opacity:1" d="m 391.189,215.936 h -1.582 v 1.229 h 1.582 z"></path>
        <path id="path260" style="fill:none;stroke:#2a357d;stroke-width:0.1;stroke-linecap:butt;stroke-linejoin:miter;stroke-miterlimit:10;stroke-dasharray:none;stroke-opacity:1" d="m 393.131,215.936 h -1.582 v 1.229 h 1.582 z"></path>
        <path id="path262" style="fill:none;stroke:#2a357d;stroke-width:0.1;stroke-linecap:butt;stroke-linejoin:miter;stroke-miterlimit:10;stroke-dasharray:none;stroke-opacity:1" d="m 395.072,215.936 h -1.581 v 1.229 h 1.581 z"></path>
        <path id="path264" style="fill:none;stroke:#2a357d;stroke-width:0.1;stroke-linecap:butt;stroke-linejoin:miter;stroke-miterlimit:10;stroke-dasharray:none;stroke-opacity:1" d="m 397.014,215.936 h -1.582 v 1.229 h 1.582 z"></path>
        <path id="path266" style="fill:none;stroke:#2a357d;stroke-width:0.1;stroke-linecap:butt;stroke-linejoin:miter;stroke-miterlimit:10;stroke-dasharray:none;stroke-opacity:1" d="m 398.957,215.936 h -1.583 v 1.229 h 1.583 z"></path>
        <path id="path268" style="fill:none;stroke:#2a357d;stroke-width:0.1;stroke-linecap:butt;stroke-linejoin:miter;stroke-miterlimit:10;stroke-dasharray:none;stroke-opacity:1" d="m 400.897,215.936 h -1.581 v 1.229 h 1.581 z"></path>
        <path id="path270" style="fill:none;stroke:#2a357d;stroke-width:0.1;stroke-linecap:butt;stroke-linejoin:miter;stroke-miterlimit:10;stroke-dasharray:none;stroke-opacity:1" d="m 402.839,215.936 h -1.582 v 1.229 h 1.582 z"></path>
        <path id="path272" style="fill:none;stroke:#2a357d;stroke-width:0.1;stroke-linecap:butt;stroke-linejoin:miter;stroke-miterlimit:10;stroke-dasharray:none;stroke-opacity:1" d="m 404.78,215.936 h -1.581 v 1.229 h 1.581 z"></path>
        <path id="path274" style="fill:none;stroke:#2a357d;stroke-width:0.1;stroke-linecap:butt;stroke-linejoin:miter;stroke-miterlimit:10;stroke-dasharray:none;stroke-opacity:1" d="m 367.89,215.936 h -1.581 v 1.229 h 1.581 z"></path>
        <path id="path276" style="fill:none;stroke:#2a357d;stroke-width:0.1;stroke-linecap:butt;stroke-linejoin:miter;stroke-miterlimit:10;stroke-dasharray:none;stroke-opacity:1" d="m 369.833,215.936 h -1.582 v 1.229 h 1.582 z"></path>
        <path id="path278" style="fill:none;stroke:#2a357d;stroke-width:0.1;stroke-linecap:butt;stroke-linejoin:miter;stroke-miterlimit:10;stroke-dasharray:none;stroke-opacity:1" d="m 371.775,215.936 h -1.583 v 1.229 h 1.583 z"></path>
        <path id="path280" style="fill:none;stroke:#2a357d;stroke-width:0.1;stroke-linecap:butt;stroke-linejoin:miter;stroke-miterlimit:10;stroke-dasharray:none;stroke-opacity:1" d="m 373.715,215.936 h -1.581 v 1.229 h 1.581 z"></path>
        <path id="path282" style="fill:none;stroke:#2a357d;stroke-width:0.1;stroke-linecap:butt;stroke-linejoin:miter;stroke-miterlimit:10;stroke-dasharray:none;stroke-opacity:1" d="m 375.658,215.936 h -1.583 v 1.229 h 1.583 z"></path>
        <path id="path284" style="fill:none;stroke:#2a357d;stroke-width:0.1;stroke-linecap:butt;stroke-linejoin:miter;stroke-miterlimit:10;stroke-dasharray:none;stroke-opacity:1" d="m 377.599,215.936 h -1.582 v 1.229 h 1.582 z"></path>
        <path id="path286" style="fill:none;stroke:#2a357d;stroke-width:0.1;stroke-linecap:butt;stroke-linejoin:miter;stroke-miterlimit:10;stroke-dasharray:none;stroke-opacity:1" d="m 379.54,215.936 h -1.581 v 1.229 h 1.581 z"></path>
        <path id="path288" style="fill:none;stroke:#2a357d;stroke-width:0.1;stroke-linecap:butt;stroke-linejoin:miter;stroke-miterlimit:10;stroke-dasharray:none;stroke-opacity:1" d="M 381.481,215.936 H 379.9 v 1.229 h 1.581 z"></path>
        <path id="path290" style="fill:none;stroke:#2a357d;stroke-width:0.1;stroke-linecap:butt;stroke-linejoin:miter;stroke-miterlimit:10;stroke-dasharray:none;stroke-opacity:1" d="m 383.423,215.936 h -1.581 v 1.229 h 1.581 z"></path>
        <path id="path292" style="fill:none;stroke:#2a357d;stroke-width:0.1;stroke-linecap:butt;stroke-linejoin:miter;stroke-miterlimit:10;stroke-dasharray:none;stroke-opacity:1" d="m 385.365,215.936 h -1.581 v 1.229 h 1.581 z"></path>
        <path id="path294" style="fill:none;stroke:#2a357d;stroke-width:0.1;stroke-linecap:butt;stroke-linejoin:miter;stroke-miterlimit:10;stroke-dasharray:none;stroke-opacity:1" d="m 387.306,215.936 h -1.581 v 1.229 h 1.581 z"></path>
        <path id="path296" style="fill:none;stroke:#2a357d;stroke-width:0.1;stroke-linecap:butt;stroke-linejoin:miter;stroke-miterlimit:10;stroke-dasharray:none;stroke-opacity:1" d="m 389.247,215.936 h -1.581 v 1.229 h 1.581 z"></path>
        <path id="path298" style="fill:none;stroke:#2a357d;stroke-width:0.1;stroke-linecap:butt;stroke-linejoin:miter;stroke-miterlimit:10;stroke-dasharray:none;stroke-opacity:1" d="m 391.189,215.936 h -1.582 v 1.229 h 1.582 z"></path>
        <path id="path300" style="fill:none;stroke:#2a357d;stroke-width:0.1;stroke-linecap:butt;stroke-linejoin:miter;stroke-miterlimit:10;stroke-dasharray:none;stroke-opacity:1" d="m 393.131,215.936 h -1.582 v 1.229 h 1.582 z"></path>
        <path id="path302" style="fill:none;stroke:#2a357d;stroke-width:0.1;stroke-linecap:butt;stroke-linejoin:miter;stroke-miterlimit:10;stroke-dasharray:none;stroke-opacity:1" d="m 395.072,215.936 h -1.581 v 1.229 h 1.581 z"></path>
        <path id="path304" style="fill:none;stroke:#2a357d;stroke-width:0.1;stroke-linecap:butt;stroke-linejoin:miter;stroke-miterlimit:10;stroke-dasharray:none;stroke-opacity:1" d="m 397.014,215.936 h -1.582 v 1.229 h 1.582 z"></path>
        <path id="path306" style="fill:none;stroke:#2a357d;stroke-width:0.1;stroke-linecap:butt;stroke-linejoin:miter;stroke-miterlimit:10;stroke-dasharray:none;stroke-opacity:1" d="m 398.957,215.936 h -1.583 v 1.229 h 1.583 z"></path>
        <path id="path308" style="fill:none;stroke:#2a357d;stroke-width:0.1;stroke-linecap:butt;stroke-linejoin:miter;stroke-miterlimit:10;stroke-dasharray:none;stroke-opacity:1" d="m 400.897,215.936 h -1.581 v 1.229 h 1.581 z"></path>
        <path id="path310" style="fill:none;stroke:#2a357d;stroke-width:0.1;stroke-linecap:butt;stroke-linejoin:miter;stroke-miterlimit:10;stroke-dasharray:none;stroke-opacity:1" d="m 402.839,215.936 h -1.582 v 1.229 h 1.582 z"></path>
        <path id="path312" style="fill:none;stroke:#2a357d;stroke-width:0.1;stroke-linecap:butt;stroke-linejoin:miter;stroke-miterlimit:10;stroke-dasharray:none;stroke-opacity:1" d="m 404.78,215.936 h -1.581 v 1.229 h 1.581 z"></path>
        <path id="path314" style="fill:none;stroke:#2a357d;stroke-width:0.1;stroke-linecap:butt;stroke-linejoin:miter;stroke-miterlimit:10;stroke-dasharray:none;stroke-opacity:1" d="m 406.722,215.936 h -1.581 v 1.229 h 1.581 z"></path>
        <path id="path316" style="fill:none;stroke:#2a357d;stroke-width:0.1;stroke-linecap:butt;stroke-linejoin:miter;stroke-miterlimit:10;stroke-dasharray:none;stroke-opacity:1" d="m 408.599,215.936 h -1.581 v 1.229 h 1.581 z"></path>
      </g>
    </g>
  </g>
</svg>
